<svg width="430.625000" height="56.875000" viewBox="0 0 430.625 56.875" fill="none" xmlns="http://www.w3.org/2000/svg" xmlns:xlink="http://www.w3.org/1999/xlink">
	<desc>
			Created with Pixso.
	</desc>
	<defs/>
	<path id="&lt;/HTML&gt;" d="M24.37 48.75L24.37 56.87L40.62 56.87L40.62 48.75L32.5 48.75L32.5 40.62L24.37 40.62L24.37 32.5L16.25 32.5L16.25 24.37L24.37 24.37L24.37 16.25L32.5 16.25L32.5 8.12L40.62 8.12L40.62 0L24.37 0L24.37 8.12L16.25 8.12L16.25 16.25L8.12 16.25L8.12 24.37L0 24.37L0 32.5L8.12 32.5L8.12 40.62L16.25 40.62L16.25 48.75L24.37 48.75ZM113.75 8.12L113.75 0L105.62 0L105.62 8.12L97.5 8.12L97.5 16.25L89.37 16.25L89.37 24.37L81.25 24.37L81.25 32.5L73.12 32.5L73.12 40.62L65 40.62L65 48.75L56.87 48.75L56.87 56.87L65 56.87L65 48.75L73.12 48.75L73.12 40.62L81.25 40.62L81.25 32.5L89.37 32.5L89.37 24.37L97.5 24.37L97.5 16.25L105.62 16.25L105.62 8.12L113.75 8.12ZM121.87 0L121.87 56.87L138.12 56.87L138.12 32.5L162.5 32.5L162.5 56.87L178.75 56.87L178.75 0L162.5 0L162.5 24.37L138.12 24.37L138.12 0L121.87 0ZM211.25 8.12L211.25 56.87L227.5 56.87L227.5 8.12L243.75 8.12L243.75 0L195 0L195 8.12L211.25 8.12ZM251.87 0L251.87 56.87L268.12 56.87L268.12 24.37L276.25 24.37L276.25 40.62L284.37 40.62L284.37 24.37L292.5 24.37L292.5 56.87L308.75 56.87L308.75 0L292.5 0L292.5 8.12L284.37 8.12L284.37 16.25L276.25 16.25L276.25 8.12L268.12 8.12L268.12 0L251.87 0ZM325 0L325 56.87L373.75 56.87L373.75 48.75L341.25 48.75L341.25 0L325 0ZM390 48.75L390 56.87L406.25 56.87L406.25 48.75L414.37 48.75L414.37 40.62L422.5 40.62L422.5 32.5L430.62 32.5L430.62 24.37L422.5 24.37L422.5 16.25L414.37 16.25L414.37 8.12L406.25 8.12L406.25 0L390 0L390 8.12L398.12 8.12L398.12 16.25L406.25 16.25L406.25 24.37L414.37 24.37L414.37 32.5L406.25 32.5L406.25 40.62L398.12 40.62L398.12 48.75L390 48.75Z" fill="#000000" fill-opacity="1.000000" fill-rule="evenodd"/>
</svg>
